<svg xmlns="http://www.w3.org/2000/svg" xmlns:xlink="http://www.w3.org/1999/xlink" viewBox="0 0 500 500"><defs><clipPath id="freepik--clip-path--inject-70"><path d="M159.53,225.51a33.1,33.1,0,0,1,3.84,6.67c2.16,4.66,7.16,14.16,7.16,14.16l12-6.33,1.84,2.67s-5.84,4.83-10,8-6.84,4.83-8.34,4.5-10-13.84-10-13.84Z" style="fill:#fff;stroke:#263238;stroke-linecap:round;stroke-linejoin:round"></path></clipPath><clipPath id="freepik--clip-path-2--inject-70"><path d="M133.7,224.51c3.16-5.17,16.33-2,16.33-2a51.49,51.49,0,0,1,8.34,2.17c2.5,1,2.33,5.83,2.16,10s-.66,5.33-2.33,9.5-3.83,6.83-4,11.83c-.14,4,.93,5.15,1.52,10.61-2.39,2-8.09,5.43-17.69,3.73a29.58,29.58,0,0,1-11.76-5c2.34-10.47,6.93-14.12,6.93-15.69s-.84-2.84-1.5-8.34S130.53,229.68,133.7,224.51Z" style="fill:#fff;stroke:#263238;stroke-linecap:round;stroke-linejoin:round"></path></clipPath><clipPath id="freepik--clip-path-3--inject-70"><path d="M152.37,219.18s-.5,1.5,0,6.16-3.17,4.84-5,1.84-2.5-5.5-2.5-11.34,2.83-9.66,4.5-7.66S152.37,219.18,152.37,219.18Z" style="fill:#fff;stroke:#263238;stroke-linecap:round;stroke-linejoin:round"></path></clipPath><clipPath id="freepik--clip-path-4--inject-70"><path d="M162.53,204.18a36.78,36.78,0,0,1-2.79,10.35c-2.17,4.5-6.54,6.48-8,5.31s-5.23-6.52-5.23-10,5.56-9,10.4-9.64S162.87,202,162.53,204.18Z" style="fill:#fff;stroke:#263238;stroke-linecap:round;stroke-linejoin:round"></path></clipPath><clipPath id="freepik--clip-path-5--inject-70"><path d="M139.53,229.84s6.67,9.67,10.34,14.5l3.66,4.84s11.17-3,14.84-3.5a44.26,44.26,0,0,0,8.33-2.34l1.17,3.17s-13,6.83-18,8.17-9.17,1.66-11.84.16S134.36,242,132.7,238.34s-1-9,1-10.16S138.37,228.34,139.53,229.84Z" style="fill:#fff;stroke:#263238;stroke-linecap:round;stroke-linejoin:round"></path></clipPath><clipPath id="freepik--clip-path-6--inject-70"><path d="M179.77,241.55s-35.83,81.52-84.51,104.72L223.63,338Z" style="fill:#567DD3;stroke:#263238;stroke-linecap:round;stroke-linejoin:round"></path></clipPath><clipPath id="freepik--clip-path-7--inject-70"><path d="M367.56,337.91s9.31,36.72,9.57,37.65-3.32,3.06-8,4.92-4.92,2.79-2.12,3.86,10.9-1.73,12.63-1.47,3.33,1.07,3.73-1.06-1.6-8.25-1.6-10.38-1.06-18.49-1.73-25.4-.93-7.59-.93-7.59Z" style="fill:#fff;stroke:#263238;stroke-linecap:round;stroke-linejoin:round"></path></clipPath><clipPath id="freepik--clip-path-8--inject-70"><path d="M389.37,341.5c2.76,12.83,6.84,24.93,4.86,38.28-1,6.79-1.42.08-3.66,1.76s-6.12,3.33-5.72,4.53,13.43-1.6,14.5-2.13,1.59-1.73,1.73-4.53.13-37.24,0-38.7S389.37,341.5,389.37,341.5Z" style="fill:#fff;stroke:#263238;stroke-linecap:round;stroke-linejoin:round"></path></clipPath><clipPath id="freepik--clip-path-9--inject-70"><path d="M411.51,252.52a16,16,0,0,0-2.32.58,14.14,14.14,0,0,0-6.7,4.83c3.72,4.74,7.38,10,7.77,12.73.79,5.72-2.19,21.37-2.19,21.37l2.26,1.6s8-13.93,7.91-20.58C418.17,269.69,414.87,260.82,411.51,252.52Z" style="fill:#fff;stroke:#263238;stroke-linecap:round;stroke-linejoin:round"></path></clipPath><clipPath id="freepik--clip-path-10--inject-70"><path d="M387.11,274.28s.53,7.05.27,7.71-1.6,1.07-1.2,2.4a2.39,2.39,0,0,0,1.73,1.59s1.6,5.33,3.06,5.33a31.52,31.52,0,0,0,5.59-1.33l2,4.92,4-3.06s-2.39-4.79-2.39-5.72,2.26-3.46,2.12-7.45S389.9,270.42,387.11,274.28Z" style="fill:#fff;stroke:#263238;stroke-linecap:round;stroke-linejoin:round"></path></clipPath><clipPath id="freepik--clip-path-11--inject-70"><path d="M389.77,355.42s5.59,7.18,9.31,11.44,8.12,7.85,8.78,9.18a8.25,8.25,0,0,1-.26,6.38c-1.07,2.13-2.13,3.46-1.07,3.73s4.52-.67,5.59-2.53,2.39-7.05,1.73-9-4.13-1.73-4.92-2.13-3.73-6.65-6.12-11.31-3.33-6.52-5.19-7.32S391.23,352.23,389.77,355.42Z" style="fill:#fff;stroke:#263238;stroke-linecap:round;stroke-linejoin:round"></path></clipPath><clipPath id="freepik--clip-path-12--inject-70"><path d="M402.81,359s1.46,13.3,1.46,18.36-.53,6.78-.53,6.78-6.52,2.26-8.25,2.93.27,1.73,1.6,2,9.31.14,10.77-.53.8-7.18.93-9.58,2.26-9.57,2.13-15-.8-7.31-.8-7.31Z" style="fill:#fff;stroke:#263238;stroke-linecap:round;stroke-linejoin:round"></path></clipPath><clipPath id="freepik--clip-path-13--inject-70"><path d="M408,317.44l-6.7,14.05s-3,2.42-4.32,3.63a10,10,0,0,0-3,5.13c-.3,1.82,1.19,1.21,1.79.61s2.38-2.57,2.83-2.57a4.34,4.34,0,0,0,2.83-1.66,15.71,15.71,0,0,0,1.64-3.48,83.1,83.1,0,0,0,7-6.49c3.27-3.48,4-6.5,3.87-8.61a5.78,5.78,0,0,0-.6-2.72Z" style="fill:#fff;stroke:#263238;stroke-linecap:round;stroke-linejoin:round;stroke-width:1.1277400000000002px"></path></clipPath><clipPath id="freepik--clip-path-14--inject-70"><path d="M373.41,224.1s.27,4.39.27,9.18,1.19,5.58,2.52,4.39,6-5.32,6.65-8-.53-16.36-.53-16.36S374.34,223.3,373.41,224.1Z" style="fill:#fff;stroke:#263238;stroke-linecap:round;stroke-linejoin:round"></path></clipPath><clipPath id="freepik--clip-path-15--inject-70"><path d="M362.9,204.68a104.4,104.4,0,0,0,4.26,14.9c2.39,5.85,3.59,7.85,6.25,6.65s8-6.92,8.91-12.24-.4-9.31-2.39-13.17S364.1,203.08,362.9,204.68Z" style="fill:#fff;stroke:#263238;stroke-linecap:round;stroke-linejoin:round"></path></clipPath><clipPath id="freepik--clip-path-16--inject-70"><path d="M380.19,212.26s1.2-5.32,2.53-4.52a3.27,3.27,0,0,1,1.07,4.92c-1.6,2.13-3.06,2-3.06,2" style="fill:#fff;stroke:#263238;stroke-linecap:round;stroke-linejoin:round"></path></clipPath></defs><g id="freepik--Shadow--inject-70"><ellipse cx="247.5" cy="358.46" rx="176.69" ry="61.53" style="fill:#567DD3"></ellipse><ellipse cx="247.5" cy="358.46" rx="176.69" ry="61.53" style="fill:#fff;opacity:0.7000000000000001"></ellipse></g><g id="freepik--Clouds--inject-70"><path d="M372.55,99.33c-2.77-1.51-4-.25-5-1.51s2.78-4.53-4.78-7.81c0,0-.51-7.05-10.84-7.3s-7.55,7.05-10.32,8.81-3.53-1-6.3.76-1.51,5.29-3.78,5.79-5.29-2.26-8.06-.5-2.77,3.27-4,3.27-3.78-1-5.29,0-3.28,2.27-3.28,2.27h63.74S375.32,100.84,372.55,99.33Z" style="fill:#567DD3"></path><path d="M372.55,99.33c-2.77-1.51-4-.25-5-1.51s2.78-4.53-4.78-7.81c0,0-.51-7.05-10.84-7.3s-7.55,7.05-10.32,8.81-3.53-1-6.3.76-1.51,5.29-3.78,5.79-5.29-2.26-8.06-.5-2.77,3.27-4,3.27-3.78-1-5.29,0-3.28,2.27-3.28,2.27h63.74S375.32,100.84,372.55,99.33Z" style="fill:#567DD3"></path><path d="M372.55,99.33c-2.77-1.51-4-.25-5-1.51s2.78-4.53-4.78-7.81c0,0-.51-7.05-10.84-7.3s-7.55,7.05-10.32,8.81-3.53-1-6.3.76-1.51,5.29-3.78,5.79-5.29-2.26-8.06-.5-2.77,3.27-4,3.27-3.78-1-5.29,0-3.28,2.27-3.28,2.27h63.74S375.32,100.84,372.55,99.33Z" style="fill:#fff;opacity:0.8"></path><path d="M226.32,122.14c-4.47-2.44-6.5-.41-8.13-2.44s4.47-7.32-7.72-12.6c0,0-.81-11.38-17.48-11.79s-12.19,11.38-16.66,14.23-5.69-1.63-10.16,1.22-2.44,8.53-6.09,9.34-8.54-3.65-13-.81-4.47,5.28-6.5,5.28-6.1-1.62-8.54,0-5.28,3.66-5.28,3.66H229.57S230.79,124.57,226.32,122.14Z" style="fill:#567DD3"></path><path d="M226.32,122.14c-4.47-2.44-6.5-.41-8.13-2.44s4.47-7.32-7.72-12.6c0,0-.81-11.38-17.48-11.79s-12.19,11.38-16.66,14.23-5.69-1.63-10.16,1.22-2.44,8.53-6.09,9.34-8.54-3.65-13-.81-4.47,5.28-6.5,5.28-6.1-1.62-8.54,0-5.28,3.66-5.28,3.66H229.57S230.79,124.57,226.32,122.14Z" style="fill:#567DD3"></path><path d="M226.32,122.14c-4.47-2.44-6.5-.41-8.13-2.44s4.47-7.32-7.72-12.6c0,0-.81-11.38-17.48-11.79s-12.19,11.38-16.66,14.23-5.69-1.63-10.16,1.22-2.44,8.53-6.09,9.34-8.54-3.65-13-.81-4.47,5.28-6.5,5.28-6.1-1.62-8.54,0-5.28,3.66-5.28,3.66H229.57S230.79,124.57,226.32,122.14Z" style="fill:#fff;opacity:0.8"></path></g><g id="freepik--Trees--inject-70"><path d="M205.2,212.52s37.65,3.73,56.73,27.07c0,0,20.16-27,56.37-26.49a73.17,73.17,0,1,0-113.11-.51Z" style="fill:#567DD3"></path><path d="M205.2,212.52s37.65,3.73,56.73,27.07c0,0,20.16-27,56.37-26.49a73.17,73.17,0,1,0-113.11-.51Z" style="fill:#fff;opacity:0.7000000000000001"></path><polygon points="260.69 98.39 259.42 287.13 265.77 287.13 260.69 98.39" style="fill:#263238"></polygon><path d="M262.59,232.47s12.71-22.87,35.59-29.86c0,0-24.15,5.72-36.22,25.42Z" style="fill:#263238"></path><path d="M262.59,167.65s12.71-22.87,35.59-29.86c0,0-24.15,5.72-36.22,25.42Z" style="fill:#263238"></path><path d="M262.59,200.06s12.71-22.87,35.59-29.86c0,0-24.15,5.72-36.22,25.42Z" style="fill:#263238"></path><path d="M260.71,184.18s-12.27-22.88-34.34-29.87c0,0,23.3,5.72,34.95,25.42Z" style="fill:#263238"></path><path d="M260.71,216s-12.27-22.88-34.34-29.87c0,0,23.3,5.72,34.95,25.42Z" style="fill:#263238"></path><path d="M98.18,227.89s29.89,3,45,21.49c0,0,16-21.47,44.77-21a58.12,58.12,0,1,0-89.82-.41Z" style="fill:#567DD3"></path><path d="M98.18,227.89s29.89,3,45,21.49c0,0,16-21.47,44.77-21a58.12,58.12,0,1,0-89.82-.41Z" style="fill:#fff;opacity:0.5"></path><polygon points="142.24 137.25 141.23 287.13 146.27 287.13 142.24 137.25" style="fill:#263238"></polygon><path d="M143.75,243.73S153.84,225.56,172,220c0,0-19.18,4.54-28.77,20.19Z" style="fill:#263238"></path><path d="M143.75,192.26s10.09-18.17,28.26-23.72c0,0-19.18,4.54-28.77,20.19Z" style="fill:#263238"></path><path d="M143.75,218s10.09-18.16,28.26-23.71c0,0-19.18,4.54-28.77,20.18Z" style="fill:#263238"></path><path d="M142.25,205.38s-9.73-18.17-27.26-23.72c0,0,18.5,4.54,27.75,20.19Z" style="fill:#263238"></path><path d="M142.25,230.61s-9.73-18.17-27.26-23.72c0,0,18.5,4.54,27.75,20.19Z" style="fill:#263238"></path><path d="M302.72,227.89s29.89,3,45,21.49c0,0,16-21.47,44.77-21a58.12,58.12,0,1,0-89.82-.41Z" style="fill:#567DD3"></path><path d="M302.72,227.89s29.89,3,45,21.49c0,0,16-21.47,44.77-21a58.12,58.12,0,1,0-89.82-.41Z" style="fill:#fff;opacity:0.5"></path><polygon points="346.77 137.25 345.77 287.13 350.81 287.13 346.77 137.25" style="fill:#263238"></polygon><path d="M348.29,243.73s10.09-18.17,28.26-23.72c0,0-19.18,4.54-28.77,20.19Z" style="fill:#263238"></path><path d="M348.29,192.26s10.09-18.17,28.26-23.72c0,0-19.18,4.54-28.77,20.19Z" style="fill:#263238"></path><path d="M348.29,218s10.09-18.16,28.26-23.71c0,0-19.18,4.54-28.77,20.18Z" style="fill:#263238"></path><path d="M346.79,205.38s-9.74-18.17-27.26-23.72c0,0,18.5,4.54,27.75,20.19Z" style="fill:#263238"></path><path d="M346.79,230.61s-9.74-18.17-27.26-23.72c0,0,18.5,4.54,27.75,20.19Z" style="fill:#263238"></path></g><g id="freepik--character-1--inject-70"><path d="M126.72,341a10.54,10.54,0,0,1,.4-3.79H122.7c-.07,2.9,0,5.1-.18,5.94-.55,2.86-1.17,3.7,1,4.77,1.11.56,2.4.69,4.34,1.59,1.5.71,4.37.32,5,.32,1.29,0,3.57-1.08-.19-2.93C129.57,345.36,126.72,343.57,126.72,341Z" style="fill:#567DD3;stroke:#263238;stroke-linecap:round;stroke-linejoin:round;stroke-width:0.6898029999999999px"></path><path d="M134.24,349a2.59,2.59,0,0,1-1.5.42l-.6,0a9.89,9.89,0,0,1-4.09-.41,18.13,18.13,0,0,0-2.74-1,10.45,10.45,0,0,1-1.59-.57c-.83-.42-1.32-.81-1.39-1.29h-.69c0,.87-.11,2.25,1.36,2.71.58.18,1.28.3,1.92.5s1.62.37,2.69.74a9.23,9.23,0,0,0,2.91.3c.67,0,1.31-.05,1.78-.08l.53,0a2.4,2.4,0,0,0,2.08-1.05A1.36,1.36,0,0,0,135,349Z" style="fill:#263238"></path><path d="M141.13,340.63a8.87,8.87,0,0,1-.23-2.73,42.66,42.66,0,0,1-4.76.29,5.92,5.92,0,0,1-.18,1.15c-1.08,3.66-1.08,5.39.43,6s5,.43,5.82,1.08,5.89.27,6.24-.71C148.91,344.44,142,342.36,141.13,340.63Z" style="fill:#567DD3;stroke:#263238;stroke-linecap:round;stroke-linejoin:round;stroke-width:0.6898029999999999px"></path><path d="M142.21,346.45c.86.64,5.72.37,6.28-.71.93-1.81-6.5-3.38-7.36-5.11" style="fill:#567DD3;stroke:#263238;stroke-linecap:round;stroke-linejoin:round;stroke-width:0.6898029999999999px"></path><path d="M148.17,345.61a2.84,2.84,0,0,1-1.53.5l-.83.06a10.31,10.31,0,0,1-4.31-.42,9.34,9.34,0,0,0-1.88-.37,12.12,12.12,0,0,1-1.87-.45,9.9,9.9,0,0,1-1-.37,1.69,1.69,0,0,1-1.14-1.92h-.68a4.75,4.75,0,0,0-.13,1,2.76,2.76,0,0,0,.14,1.14c.33.92,1.29,1.13,2.15,1.33a40.51,40.51,0,0,0,5.79,1,19.23,19.23,0,0,0,2.94,0,5.42,5.42,0,0,0,2.29-.45,1.78,1.78,0,0,0,.73-.71,1,1,0,0,0,.08-.38Z" style="fill:#263238"></path><path d="M161.7,202.34s-3.17.5,0,9.84,4.67,14,2.33,17.16-10.33,6-14.16-.5-3.84-18-.5-23.16S159.7,198.68,161.7,202.34Z" style="fill:#263238;stroke:#263238;stroke-linecap:round;stroke-linejoin:round"></path><path d="M159.53,225.51a33.1,33.1,0,0,1,3.84,6.67c2.16,4.66,7.16,14.16,7.16,14.16l12-6.33,1.84,2.67s-5.84,4.83-10,8-6.84,4.83-8.34,4.5-10-13.84-10-13.84Z" style="fill:#fff"></path><g style="clip-path:url(#freepik--clip-path--inject-70)"><path d="M159.53,225.51a33.1,33.1,0,0,1,3.84,6.67c2.16,4.66,7.16,14.16,7.16,14.16l12-6.33,1.84,2.67s-5.84,4.83-10,8-6.84,4.83-8.34,4.5-10-13.84-10-13.84Z" style="fill:#567DD3"></path></g><path d="M159.53,225.51a33.1,33.1,0,0,1,3.84,6.67c2.16,4.66,7.16,14.16,7.16,14.16l12-6.33,1.84,2.67s-5.84,4.83-10,8-6.84,4.83-8.34,4.5-10-13.84-10-13.84Z" style="fill:none;stroke:#263238;stroke-linecap:round;stroke-linejoin:round"></path><path d="M150,222.51a51.49,51.49,0,0,1,8.34,2.17c2.5,1,2.33,5.83,2.16,10s-.66,5.33-2.33,9.5-3.83,6.83-4,11.83,1.5,5.5,1.83,15.34-3.5,19-6.16,23.5a54,54,0,0,0-7.17,19.33c-1.5,8.83-2.5,17.67-2.17,19.83s1.17,5.84-.16,6.67-4,.33-4.34-.5-2-19.67-2-23.67-.17-6.16-.17-6.16-4.5,12.66-5.33,18-.5,11.83-1.5,13-4,2.17-4.67-.17-.33-19.67-.16-27,5-15.5,5-19.83-3.5-15-1.34-27,7.34-16,7.34-17.67-.84-2.84-1.5-8.34-1.17-11.66,2-16.83S150,222.51,150,222.51Z" style="fill:#263238;stroke:#263238;stroke-linecap:round;stroke-linejoin:round"></path><path d="M133.93,310.37s2-8.51,4.27-15.85S145,274.83,145,274.83" style="fill:none;stroke:#fff;stroke-linecap:round;stroke-linejoin:round;stroke-width:0.5px"></path><path d="M133.7,224.51c3.16-5.17,16.33-2,16.33-2a51.49,51.49,0,0,1,8.34,2.17c2.5,1,2.33,5.83,2.16,10s-.66,5.33-2.33,9.5-3.83,6.83-4,11.83c-.14,4,.93,5.15,1.52,10.61-2.39,2-8.09,5.43-17.69,3.73a29.58,29.58,0,0,1-11.76-5c2.34-10.47,6.93-14.12,6.93-15.69s-.84-2.84-1.5-8.34S130.53,229.68,133.7,224.51Z" style="fill:#fff"></path><g style="clip-path:url(#freepik--clip-path-2--inject-70)"><path d="M138,270.35c9.6,1.7,15.3-1.74,17.69-3.73-.59-5.46-1.66-6.57-1.52-10.61.17-5,2.33-7.67,4-11.83a32.43,32.43,0,0,0,2-5.71l-28,5.77c.55,3.1,1.08,4.12,1.08,5.44,0,1.57-4.59,5.22-6.93,15.69A29.58,29.58,0,0,0,138,270.35Z" style="fill:#567DD3"></path><path d="M143.81,226s2.17,5.58,6.05,5.89,5.27-4,4-6.51-4.5-4.65-7.75-3.41S143.81,226,143.81,226Z" style="fill:#567DD3"></path></g><path d="M133.7,224.51c3.16-5.17,16.33-2,16.33-2a51.49,51.49,0,0,1,8.34,2.17c2.5,1,2.33,5.83,2.16,10s-.66,5.33-2.33,9.5-3.83,6.83-4,11.83c-.14,4,.93,5.15,1.52,10.61-2.39,2-8.09,5.43-17.69,3.73a29.58,29.58,0,0,1-11.76-5c2.34-10.47,6.93-14.12,6.93-15.69s-.84-2.84-1.5-8.34S130.53,229.68,133.7,224.51Z" style="fill:none;stroke:#263238;stroke-linecap:round;stroke-linejoin:round"></path><path d="M152.37,219.18s-.5,1.5,0,6.16-3.17,4.84-5,1.84-2.5-5.5-2.5-11.34,2.83-9.66,4.5-7.66S152.37,219.18,152.37,219.18Z" style="fill:#fff"></path><g style="clip-path:url(#freepik--clip-path-3--inject-70)"><path d="M148.43,220.85l1.53.7a36.26,36.26,0,0,1,.84,6.95,1.6,1.6,0,0,0,.06.59c1-.31,1.75-1.5,1.51-3.75-.5-4.66,0-6.16,0-6.16s-1.34-9-3-11-4.5,1.83-4.5,7.66C144.87,215.84,146.9,220.16,148.43,220.85Z" style="fill:#567DD3"></path><path d="M148.43,220.85l1.53.7a36.26,36.26,0,0,1,.84,6.95,1.6,1.6,0,0,0,.06.59c1-.31,1.75-1.5,1.51-3.75-.5-4.66,0-6.16,0-6.16s-1.34-9-3-11-4.5,1.83-4.5,7.66C144.87,215.84,146.9,220.16,148.43,220.85Z" style="fill:#fff;opacity:0.7000000000000001"></path></g><path d="M152.37,219.18s-.5,1.5,0,6.16-3.17,4.84-5,1.84-2.5-5.5-2.5-11.34,2.83-9.66,4.5-7.66S152.37,219.18,152.37,219.18Z" style="fill:none;stroke:#263238;stroke-linecap:round;stroke-linejoin:round"></path><path d="M162.53,204.18a36.78,36.78,0,0,1-2.79,10.35c-2.17,4.5-6.54,6.48-8,5.31s-5.23-6.52-5.23-10,5.56-9,10.4-9.64S162.87,202,162.53,204.18Z" style="fill:#fff"></path><g style="clip-path:url(#freepik--clip-path-4--inject-70)"><path d="M156.87,200.18c-4.1.56-8.7,4.57-10,7.92l1,.94a63.14,63.14,0,0,0,6.81.55,9,9,0,0,0,4.86-1.53s-2.92,8.9-5,10.43a16.29,16.29,0,0,0-2,1.66c1.92.17,5.31-1.83,7.14-5.62a36.78,36.78,0,0,0,2.79-10.35C162.87,202,161.7,199.51,156.87,200.18Z" style="fill:#567DD3"></path><path d="M156.87,200.18c-4.1.56-8.7,4.57-10,7.92l1,.94a63.14,63.14,0,0,0,6.81.55,9,9,0,0,0,4.86-1.53s-2.92,8.9-5,10.43a16.29,16.29,0,0,0-2,1.66c1.92.17,5.31-1.83,7.14-5.62a36.78,36.78,0,0,0,2.79-10.35C162.87,202,161.7,199.51,156.87,200.18Z" style="fill:#fff;opacity:0.7000000000000001"></path></g><path d="M162.53,204.18a36.78,36.78,0,0,1-2.79,10.35c-2.17,4.5-6.54,6.48-8,5.31s-5.23-6.52-5.23-10,5.56-9,10.4-9.64S162.87,202,162.53,204.18Z" style="fill:none;stroke:#263238;stroke-linecap:round;stroke-linejoin:round"></path><path d="M154.69,208.21c-.08.6.11,1.12.43,1.16s.64-.4.73-1-.11-1.12-.43-1.16S154.78,207.61,154.69,208.21Z" style="fill:#222221"></path><path d="M158.7,208.44c-.09.6.1,1.12.42,1.17s.65-.41.73-1-.1-1.12-.42-1.17S158.78,207.84,158.7,208.44Z" style="fill:#222221"></path><path d="M158,209s0,3.65-.12,4-1.18.12-1.18.12" style="fill:none;stroke:#263238;stroke-linecap:round;stroke-linejoin:round"></path><path d="M156.81,215.74a2.54,2.54,0,0,1-3.3-.82" style="fill:none;stroke:#263238;stroke-linecap:round;stroke-linejoin:round"></path><path d="M161.05,206.91s-.35-1.06-1.77-.71" style="fill:none;stroke:#263238;stroke-linecap:round;stroke-linejoin:round"></path><path d="M168.2,198.18c0,.66-3.87,3.69-7.67,6.16-4.31,2.81-5.66,3.34-9.16,4s-4.5,1.34-5,7.67-.34,8.17-.17,15.67-6.67,7.66-9,5.33-3.34-8.17-4.17-6-1.33,9.17-.33,13.5-2.67,5.33-6.84,1.33-3.16-15.5,0-22.5,8.37-10.37,10.87-16.2,2.56-10.45,8.06-14.45S168.2,193.34,168.2,198.18Z" style="fill:#263238;stroke:#263238;stroke-linecap:round;stroke-linejoin:round"></path><path d="M166.63,198.74a38.47,38.47,0,0,1-11.76,6.38c-7.05,2.35-12.93,5.71-14.11,10.75s4.54,12.93,2,17.47" style="fill:none;stroke:#fff;stroke-linecap:round;stroke-linejoin:round;stroke-width:0.5px"></path><path d="M125.1,240.73a5.19,5.19,0,0,0,.55,2.52" style="fill:none;stroke:#fff;stroke-linecap:round;stroke-linejoin:round;stroke-width:0.5px"></path><path d="M158.7,199.71a23.09,23.09,0,0,1-5.17,3.73c-6.72,3.7-13.77,6.38-14.78,10.75s.5,9.07-3.7,12.26c-3,2.27-7.84,7.17-9.43,11.69" style="fill:none;stroke:#fff;stroke-linecap:round;stroke-linejoin:round;stroke-width:0.5px"></path><path d="M160.92,196.39a5,5,0,0,1-.74,1.52" style="fill:none;stroke:#fff;stroke-linecap:round;stroke-linejoin:round;stroke-width:0.5px"></path><path d="M139.53,229.84s6.67,9.67,10.34,14.5l3.66,4.84s11.17-3,14.84-3.5a44.26,44.26,0,0,0,8.33-2.34l1.17,3.17s-13,6.83-18,8.17-9.17,1.66-11.84.16S134.36,242,132.7,238.34s-1-9,1-10.16S138.37,228.34,139.53,229.84Z" style="fill:#fff"></path><g style="clip-path:url(#freepik--clip-path-5--inject-70)"><path d="M139.53,229.84s6.67,9.67,10.34,14.5l3.66,4.84s11.17-3,14.84-3.5a44.26,44.26,0,0,0,8.33-2.34l1.17,3.17s-13,6.83-18,8.17-9.17,1.66-11.84.16S134.36,242,132.7,238.34s-1-9,1-10.16S138.37,228.34,139.53,229.84Z" style="fill:#567DD3;stroke:#263238;stroke-linecap:round;stroke-linejoin:round"></path></g><path d="M139.53,229.84s6.67,9.67,10.34,14.5l3.66,4.84s11.17-3,14.84-3.5a44.26,44.26,0,0,0,8.33-2.34l1.17,3.17s-13,6.83-18,8.17-9.17,1.66-11.84.16S134.36,242,132.7,238.34s-1-9,1-10.16S138.37,228.34,139.53,229.84Z" style="fill:none;stroke:#263238;stroke-linecap:round;stroke-linejoin:round"></path><path d="M182.53,240s2.34-2.17,3.5-3.33,4.67-.67,5.84,2.16-1,3.34-3.34,4.34a4.21,4.21,0,0,1-4.16-.5Z" style="fill:#fff;stroke:#263238;stroke-linecap:round;stroke-linejoin:round"></path><path d="M191.53,234.68s3.5,2.83,3.67,4.66-1.83,4-3.17,1.84a17.57,17.57,0,0,1-2.5-5.17C189.37,234.84,190.37,233.84,191.53,234.68Z" style="fill:#fff;stroke:#263238;stroke-linecap:round;stroke-linejoin:round"></path><path d="M184.53,238.84s2.67-2.66,4.34-4.5,2.83-1.5,2.66.34-2.33,2.83-2.33,2.83-.33,3.17-2.67,3.67" style="fill:#fff;stroke:#263238;stroke-linecap:round;stroke-linejoin:round"></path><path d="M176.7,243.34a9.67,9.67,0,0,1,3.83-3.5c2.34-1,3.67-1,4.84.17s3.5,2,3.16,3.17-1.5.66-2,.5a22.32,22.32,0,0,0-2.66-.34,9.73,9.73,0,0,1-2.67,2.5,13.76,13.76,0,0,1-3.33.67Z" style="fill:#fff;stroke:#263238;stroke-linecap:round;stroke-linejoin:round"></path></g><g id="freepik--Tent--inject-70"><polygon points="120.96 342.74 89.75 347.42 236 371.78 228.33 333.43 120.96 342.74" style="fill:#567DD3"></polygon><polygon points="120.96 342.74 89.75 347.42 236 371.78 228.33 333.43 120.96 342.74" style="fill:#fff;opacity:0.4"></polygon><path d="M179.77,241.55s-35.83,81.52-84.51,104.72L223.63,338Z" style="fill:#567DD3"></path><g style="clip-path:url(#freepik--clip-path-6--inject-70)"><path d="M179.77,241.55s-35.83,81.52-84.51,104.72L223.63,338Z" style="stroke:#263238;stroke-linecap:round;stroke-linejoin:round;opacity:0.5"></path></g><path d="M179.77,241.55s-35.83,81.52-84.51,104.72L223.63,338Z" style="fill:none;stroke:#263238;stroke-linecap:round;stroke-linejoin:round"></path><line x1="179.77" y1="235.8" x2="179.77" y2="362.57" style="fill:none;stroke:#263238;stroke-linecap:round;stroke-linejoin:round;stroke-width:2px"></line><line x1="270.02" y1="237.64" x2="270.02" y2="230.98" style="fill:none;stroke:#263238;stroke-linecap:round;stroke-linejoin:round;stroke-width:2px"></line><path d="M179.77,241.55s17.35,54.16,27.79,81.06c11.94,30.78,26.41,50.3,26.41,50.3l115.51-26.18s-74.86-86.81-79-110.93C270.48,235.8,217.2,245.68,179.77,241.55Z" style="fill:#fff;stroke:#263238;stroke-linecap:round;stroke-linejoin:round"></path><path d="M264.2,273.29c-.3.63-.63,1.24-1,1.85" style="fill:none;stroke:#263238;stroke-linecap:round;stroke-linejoin:round"></path><path d="M270.13,246.37s0,12.91-4.78,24.39" style="fill:none;stroke:#263238;stroke-linecap:round;stroke-linejoin:round"></path><path d="M269,239.47s-1.91,13-6.52,21.09" style="fill:none;stroke:#263238;stroke-linecap:round;stroke-linejoin:round"></path><path d="M185.36,246.37a30.77,30.77,0,0,0,13.43,12.28" style="fill:none;stroke:#263238;stroke-linecap:round;stroke-linejoin:round"></path><path d="M185,249.06s3.45,10.74,11.89,17.64" style="fill:none;stroke:#263238;stroke-linecap:round;stroke-linejoin:round"></path><line x1="233.97" y1="372.91" x2="238.79" y2="380.71" style="fill:none;stroke:#263238;stroke-linecap:round;stroke-linejoin:round"></line><line x1="95.26" y1="346.27" x2="89.75" y2="347.42" style="fill:none;stroke:#263238;stroke-linecap:round;stroke-linejoin:round"></line><line x1="349.48" y1="346.73" x2="356.14" y2="349.71" style="fill:none;stroke:#263238;stroke-linecap:round;stroke-linejoin:round"></line><line x1="356.6" y1="352.01" x2="356.6" y2="345.35" style="fill:none;stroke:#263238;stroke-linecap:round;stroke-linejoin:round;stroke-width:2px"></line><line x1="239.25" y1="382.55" x2="239.25" y2="375.89" style="fill:none;stroke:#263238;stroke-linecap:round;stroke-linejoin:round;stroke-width:2px"></line><line x1="90.44" y1="348.79" x2="90.44" y2="342.13" style="fill:none;stroke:#263238;stroke-linecap:round;stroke-linejoin:round;stroke-width:2px"></line></g><g id="freepik--Grill--inject-70"><ellipse cx="347.7" cy="383.14" rx="62.62" ry="13" style="fill:#567DD3"></ellipse><path d="M317.31,284.05c0,2.27-2,2.27-2,4.54s2,2.27,2,4.55-2,2.27-2,4.54,2,2.28,2,4.55-2,2.28-2,4.56" style="fill:none;stroke:#263238;stroke-linecap:round;stroke-linejoin:round"></path><path d="M326,284.05c0,2.27-2,2.27-2,4.54s2,2.27,2,4.55-2,2.27-2,4.54,2,2.28,2,4.55-2,2.28-2,4.56" style="fill:none;stroke:#263238;stroke-linecap:round;stroke-linejoin:round"></path><path d="M334.63,284.05c0,2.27-2,2.27-2,4.54s2,2.27,2,4.55-2,2.27-2,4.54,2,2.28,2,4.55-2,2.28-2,4.56" style="fill:none;stroke:#263238;stroke-linecap:round;stroke-linejoin:round"></path><line x1="317.06" y1="338.47" x2="304.84" y2="389.56" style="fill:none;stroke:#263238;stroke-linecap:round;stroke-linejoin:round;stroke-width:3px"></line><line x1="337.62" y1="338.47" x2="352.2" y2="388.87" style="fill:none;stroke:#263238;stroke-linecap:round;stroke-linejoin:round;stroke-width:3px"></line><line x1="328.73" y1="337.64" x2="328.73" y2="382.9" style="fill:none;stroke:#263238;stroke-linecap:round;stroke-linejoin:round;stroke-width:3px"></line><path d="M355,314H302.34c.42,16.39,8.06,23.05,8.06,23.05h.12c1.43,2.45,9,4.31,18.14,4.31s16.71-1.86,18.14-4.31h.13C356,329.17,355,314,355,314Z" style="fill:#263238;stroke:#263238;stroke-linecap:round;stroke-linejoin:round"></path><path d="M355,314c0,2.07-11.78,3.75-26.32,3.75s-26.32-1.68-26.32-3.75,11.78-3.75,26.32-3.75S355,312,355,314Z" style="fill:#567DD3;stroke:#263238;stroke-linecap:round;stroke-linejoin:round"></path><path d="M326.22,310.29l-1.65,0L314,317.15l1.42.12Z" style="fill:#222221"></path><path d="M330.54,310.29h-1.6l-11.06,7.17,1.47.09Z" style="fill:#222221"></path><path d="M317,310.66l-1.83.14L307,316.15l1.25.24Z" style="fill:#222221"></path><path d="M321.74,310.41l-1.73.08-9.63,6.23,1.35.18Z" style="fill:#222221"></path><path d="M303.94,315.32c.31.12.67.24,1.06.35l7-4.55c-.7.08-1.37.17-2,.26Z" style="fill:#222221"></path><path d="M334.7,310.38l-1.54-.05-11.29,7.32,1.53.05Z" style="fill:#222221"></path><path d="M349.76,311.78l-1.27-.22-9.09,5.89,1.81-.13Z" style="fill:#222221"></path><path d="M352.87,312.55c-.33-.11-.7-.22-1.1-.32L344.35,317l2-.23Z" style="fill:#222221"></path><path d="M338.72,310.56l-1.48-.08L326,317.76h1.59Z" style="fill:#222221"></path><path d="M346.29,311.24l-1.36-.16-10.18,6.6,1.71-.07Z" style="fill:#222221"></path><path d="M342.59,310.85c-.46-.05-.94-.09-1.42-.12l-10.87,7,1.64,0Z" style="fill:#222221"></path><path d="M340.21,313.67a1.89,1.89,0,0,1-.65-.11c-5.34-1.84-13.46-1-13.54-1a2,2,0,0,1-.42-4c.37,0,9.08-.93,15.27,1.21a2,2,0,0,1,1.23,2.55A2,2,0,0,1,340.21,313.67Z" style="fill:#fff;stroke:#263238;stroke-linecap:round;stroke-linejoin:round"></path><path d="M327.83,316.67a2.11,2.11,0,0,1-.65-.11c-5.36-1.85-13.46-1-13.54-1a2,2,0,0,1-.42-4c.37,0,9.08-.92,15.27,1.22a2,2,0,0,1-.66,3.89Z" style="fill:#fff;stroke:#263238;stroke-linecap:round;stroke-linejoin:round"></path></g><g id="freepik--character-2--inject-70"><path d="M367.56,337.91s9.31,36.72,9.57,37.65-3.32,3.06-8,4.92-4.92,2.79-2.12,3.86,10.9-1.73,12.63-1.47,3.33,1.07,3.73-1.06-1.6-8.25-1.6-10.38-1.06-18.49-1.73-25.4-.93-7.59-.93-7.59Z" style="fill:#fff"></path><g style="clip-path:url(#freepik--clip-path-7--inject-70)"><path d="M381.79,371.43c0-2.12-1.06-18.49-1.73-25.4s-.93-7.59-.93-7.59l-8.19-.37-2.68,2.62.17.65,6.95,3.73,8,36.74C383.79,379.68,381.79,373.56,381.79,371.43Z" style="fill:#567DD3"></path><path d="M381.79,371.43c0-2.12-1.06-18.49-1.73-25.4s-.93-7.59-.93-7.59l-8.19-.37-2.68,2.62.17.65,6.95,3.73,8,36.74C383.79,379.68,381.79,373.56,381.79,371.43Z" style="fill:#fff;opacity:0.7000000000000001"></path></g><path d="M367.56,337.91s9.31,36.72,9.57,37.65-3.32,3.06-8,4.92-4.92,2.79-2.12,3.86,10.9-1.73,12.63-1.47,3.33,1.07,3.73-1.06-1.6-8.25-1.6-10.38-1.06-18.49-1.73-25.4-.93-7.59-.93-7.59Z" style="fill:none;stroke:#263238;stroke-linecap:round;stroke-linejoin:round"></path><path d="M383,378c-1.84.47-4.43.85-4.43.85v-2c0-1.33-1.47-1.33-1.47-1.33.27.93-3.32,3.06-8,4.92s-4.92,2.79-2.12,3.86,10.9-1.73,12.63-1.47,3.33,1.07,3.73-1.06A12.13,12.13,0,0,0,383,378Z" style="fill:#263238;stroke:#263238;stroke-linecap:round;stroke-linejoin:round"></path><path d="M389.37,341.5c2.76,12.83,6.84,24.93,4.86,38.28-1,6.79-1.42.08-3.66,1.76s-6.12,3.33-5.72,4.53,13.43-1.6,14.5-2.13,1.59-1.73,1.73-4.53.13-37.24,0-38.7S389.37,341.5,389.37,341.5Z" style="fill:#fff"></path><g style="clip-path:url(#freepik--clip-path-8--inject-70)"><path d="M397.9,340.27l-.28,13.55-.47,30.73a18.35,18.35,0,0,0,2.2-.61c1.06-.53,1.59-1.73,1.73-4.53s.13-37.24,0-38.7C401,340.21,399.67,340.14,397.9,340.27Z" style="fill:#567DD3"></path><path d="M397.9,340.27l-.28,13.55-.47,30.73a18.35,18.35,0,0,0,2.2-.61c1.06-.53,1.59-1.73,1.73-4.53s.13-37.24,0-38.7C401,340.21,399.67,340.14,397.9,340.27Z" style="fill:#fff;opacity:0.7000000000000001"></path></g><path d="M389.37,341.5c2.76,12.83,6.84,24.93,4.86,38.28-1,6.79-1.42.08-3.66,1.76s-6.12,3.33-5.72,4.53,13.43-1.6,14.5-2.13,1.59-1.73,1.73-4.53.13-37.24,0-38.7S389.37,341.5,389.37,341.5Z" style="fill:none;stroke:#263238;stroke-linecap:round;stroke-linejoin:round"></path><path d="M397.09,379.55a7.68,7.68,0,0,0-1.47-2.4c-.55-.62-1-.3-1.37.15a7.1,7.1,0,0,1-.48.89v0h0a13.26,13.26,0,0,1-3.18,3.32c-2.13,1.6-6.12,3.33-5.72,4.53s13.43-1.6,14.5-2.13,1.59-1.73,1.73-4.53c0-.22,0-.64,0-1.23Z" style="fill:#263238;stroke:#263238;stroke-linecap:round;stroke-linejoin:round"></path><path d="M361.44,286.22c-.53.4-1.73,50.76-1.73,50.76A41.33,41.33,0,0,0,371,341.11a34,34,0,0,0,11.7-.54l.93,2.8a39.59,39.59,0,0,0,11.58.26c6.38-.8,13.16-4.52,13.16-4.52L399.48,289Z" style="fill:#263238;stroke:#263238;stroke-linecap:round;stroke-linejoin:round"></path><path d="M338.29,290.48l-9.71,3.72s-.66-.27.14-.93,9.71-5.32,9.71-5.32l-13.17,2.66s-.27-.4.66-1.06,12.77-4.26,12.77-4.26,4.66-1.6,4.52.4S338.29,290.48,338.29,290.48Z" style="fill:#fff;stroke:#263238;stroke-linecap:round;stroke-linejoin:round"></path><path d="M361,265.34l-20,15.43s-4.26,1.06-5.86,2.26-3.72,4.65-3.72,4.65l5.05-1.46,2.13-.93a27.62,27.62,0,0,1-1.33,4.92c-.66,1.33,1.6.53,2.53-.66s2.66-6.39,2.66-6.39l19.69-7.32Z" style="fill:#fff;stroke:#263238;stroke-linecap:round;stroke-linejoin:round"></path><path d="M376.47,228.22s-12.37,4-14.77,5.19-2.39,9.31-2.39,12.5,1.48,24.08,1.48,30.73-1,10,.83,11.71,13.27,4.25,22.05,3.85,15.56-2.53,16.22-4.39,1.85-43.62,2-48-.14-6.52-2.66-7.72-12.77-3.32-15.83-3.86S377.8,227.56,376.47,228.22Z" style="fill:#567DD3"></path><path d="M376.47,228.22s-12.37,4-14.77,5.19-2.39,9.31-2.39,12.5,1.48,24.08,1.48,30.73-1,10,.83,11.71,13.27,4.25,22.05,3.85,15.56-2.53,16.22-4.39,1.85-43.62,2-48-.14-6.52-2.66-7.72-12.77-3.32-15.83-3.86S377.8,227.56,376.47,228.22Z" style="fill:none;stroke:#263238;stroke-linecap:round;stroke-linejoin:round"></path><path d="M399.22,232.08s4.25.8,5.18,3.46,13.7,30.86,13.84,37.51-7.91,20.58-7.91,20.58l-2.26-1.6s3-15.65,2.19-21.37-16-22.48-16-22.48" style="fill:#567DD3"></path><path d="M399.22,232.08s4.25.8,5.18,3.46,13.7,30.86,13.84,37.51-7.91,20.58-7.91,20.58l-2.26-1.6s3-15.65,2.19-21.37-16-22.48-16-22.48" style="fill:none;stroke:#263238;stroke-linecap:round;stroke-linejoin:round"></path><path d="M411.51,252.52a16,16,0,0,0-2.32.58,14.14,14.14,0,0,0-6.7,4.83c3.72,4.74,7.38,10,7.77,12.73.79,5.72-2.19,21.37-2.19,21.37l2.26,1.6s8-13.93,7.91-20.58C418.17,269.69,414.87,260.82,411.51,252.52Z" style="fill:#fff"></path><g style="clip-path:url(#freepik--clip-path-9--inject-70)"><path d="M418.23,272.94c0-.18,0-.37,0-.58s0-.2-.05-.31,0-.32-.07-.5-.06-.27-.08-.4-.07-.33-.11-.52-.07-.31-.11-.46-.08-.36-.13-.56-.09-.32-.13-.48-.12-.41-.18-.63-.09-.33-.14-.49l-.21-.71-.16-.49c-.08-.26-.16-.52-.25-.79l-.16-.49c-.1-.28-.19-.56-.29-.85s-.11-.32-.16-.49-.21-.61-.33-.92c0-.14-.1-.28-.15-.43l-.37-1c0-.13-.09-.26-.14-.39-.13-.37-.27-.73-.41-1.11l-.12-.33c-.15-.4-.3-.79-.46-1.19,0-.11-.08-.21-.11-.31l-.48-1.25a2.44,2.44,0,0,1-.1-.24c-.17-.44-.34-.88-.52-1.32l-.08-.21-.54-1.36-.07-.16-.57-1.42h0a16,16,0,0,0-2.32.58c-.2.06-.39.15-.58.22,3.6,7.46,7.32,17.54,6.06,24.16a143,143,0,0,1-4.34,16.15s2.54-4.41,4.75-9.45c.24-.56.48-1.13.71-1.7a46.45,46.45,0,0,0,1.77-5.06,16.38,16.38,0,0,0,.68-4.37S418.23,273,418.23,272.94Z" style="fill:#567DD3"></path><path d="M418.23,272.94c0-.18,0-.37,0-.58s0-.2-.05-.31,0-.32-.07-.5-.06-.27-.08-.4-.07-.33-.11-.52-.07-.31-.11-.46-.08-.36-.13-.56-.09-.32-.13-.48-.12-.41-.18-.63-.09-.33-.14-.49l-.21-.71-.16-.49c-.08-.26-.16-.52-.25-.79l-.16-.49c-.1-.28-.19-.56-.29-.85s-.11-.32-.16-.49-.21-.61-.33-.92c0-.14-.1-.28-.15-.43l-.37-1c0-.13-.09-.26-.14-.39-.13-.37-.27-.73-.41-1.11l-.12-.33c-.15-.4-.3-.79-.46-1.19,0-.11-.08-.21-.11-.31l-.48-1.25a2.44,2.44,0,0,1-.1-.24c-.17-.44-.34-.88-.52-1.32l-.08-.21-.54-1.36-.07-.16-.57-1.42h0a16,16,0,0,0-2.32.58c-.2.06-.39.15-.58.22,3.6,7.46,7.32,17.54,6.06,24.16a143,143,0,0,1-4.34,16.15s2.54-4.41,4.75-9.45c.24-.56.48-1.13.71-1.7a46.45,46.45,0,0,0,1.77-5.06,16.38,16.38,0,0,0,.68-4.37S418.23,273,418.23,272.94Z" style="fill:#fff;opacity:0.7000000000000001"></path></g><path d="M411.51,252.52a16,16,0,0,0-2.32.58,14.14,14.14,0,0,0-6.7,4.83c3.72,4.74,7.38,10,7.77,12.73.79,5.72-2.19,21.37-2.19,21.37l2.26,1.6s8-13.93,7.91-20.58C418.17,269.69,414.87,260.82,411.51,252.52Z" style="fill:none;stroke:#263238;stroke-linecap:round;stroke-linejoin:round"></path><path d="M388,230a1.36,1.36,0,0,0,.11-.78c-2-.43-3.77-.77-4.76-.95-3.06-.53-5.59-.66-6.92,0l-5.17,1.7a22.8,22.8,0,0,0,.91,8.41c1.33,3.46,2,3.73,4.53,2.13S386.84,232.75,388,230Z" style="fill:#263238;stroke:#263238;stroke-linecap:round;stroke-linejoin:round"></path><path d="M387.11,274.28s.53,7.05.27,7.71-1.6,1.07-1.2,2.4a2.39,2.39,0,0,0,1.73,1.59s1.6,5.33,3.06,5.33a31.52,31.52,0,0,0,5.59-1.33l2,4.92,4-3.06s-2.39-4.79-2.39-5.72,2.26-3.46,2.12-7.45S389.9,270.42,387.11,274.28Z" style="fill:#fff"></path><g style="clip-path:url(#freepik--clip-path-10--inject-70)"><path d="M402.27,278.67c-.08-2.46-4.77-5-9-5.72-.69,3-1.62,8.29-.35,10.95,1.83,3.83,0,5.84-.55,6s-1.39,1.39-1.39,1.39l5.59-1.33,6,1.86s-2.39-4.79-2.39-5.72S402.41,282.66,402.27,278.67Z" style="fill:#567DD3"></path><path d="M402.27,278.67c-.08-2.46-4.77-5-9-5.72-.69,3-1.62,8.29-.35,10.95,1.83,3.83,0,5.84-.55,6s-1.39,1.39-1.39,1.39l5.59-1.33,6,1.86s-2.39-4.79-2.39-5.72S402.41,282.66,402.27,278.67Z" style="fill:#fff;opacity:0.7000000000000001"></path></g><path d="M387.11,274.28s.53,7.05.27,7.71-1.6,1.07-1.2,2.4a2.39,2.39,0,0,0,1.73,1.59s1.6,5.33,3.06,5.33a31.52,31.52,0,0,0,5.59-1.33l2,4.92,4-3.06s-2.39-4.79-2.39-5.72,2.26-3.46,2.12-7.45S389.9,270.42,387.11,274.28Z" style="fill:none;stroke:#263238;stroke-linecap:round;stroke-linejoin:round"></path><path d="M389.87,281.06c0,.59-.22,1.06-.49,1.06s-.48-.47-.48-1.06.22-1.07.48-1.07S389.87,280.47,389.87,281.06Z" style="fill:#263238"></path><path d="M384.45,269.89s-.13,2.53,2.26,5.85a11.45,11.45,0,0,0,6.39,4.13L392,276.94s3.86,2.93,4.53,2.93,4.12,2,4.12,2-1.33,2.66-.67,3.06,3.86-4.12,5.19-7.45,2-9-2.53-11.31S386.71,265.77,384.45,269.89Z" style="fill:#263238;stroke:#263238;stroke-linecap:round;stroke-linejoin:round"></path><path d="M387.15,270.68s2.14,5.82,6.21,7.95" style="fill:none;stroke:#fff;stroke-linecap:round;stroke-linejoin:round;stroke-width:0.5px"></path><path d="M390.06,271.46s1.94,5.81,9.89,5.81" style="fill:none;stroke:#fff;stroke-linecap:round;stroke-linejoin:round;stroke-width:0.5px"></path><path d="M397.89,282s1.06-2.79,2.26-1.59a4,4,0,0,1,1.06,4.79c-.93,1.86-3.06.26-3.06.26" style="fill:#567DD3;stroke:#263238;stroke-linecap:round;stroke-linejoin:round"></path><path d="M397.89,282s1.06-2.79,2.26-1.59a4,4,0,0,1,1.06,4.79c-.93,1.86-3.06.26-3.06.26" style="fill:#fff;stroke:#263238;stroke-linecap:round;stroke-linejoin:round;opacity:0.7000000000000001"></path><path d="M389.77,355.42s5.59,7.18,9.31,11.44,8.12,7.85,8.78,9.18a8.25,8.25,0,0,1-.26,6.38c-1.07,2.13-2.13,3.46-1.07,3.73s4.52-.67,5.59-2.53,2.39-7.05,1.73-9-4.13-1.73-4.92-2.13-3.73-6.65-6.12-11.31-3.33-6.52-5.19-7.32S391.23,352.23,389.77,355.42Z" style="fill:#fff"></path><g style="clip-path:url(#freepik--clip-path-11--inject-70)"><path d="M402.81,361.14c-2.4-4.66-3.33-6.52-5.19-7.32a9.54,9.54,0,0,0-4.29-.67l-1.56,3.07,15.3,13.33C405.83,367.22,404.23,363.9,402.81,361.14Z" style="fill:#567DD3"></path><g style="opacity:0.7000000000000001"><path d="M402.81,361.14c-2.4-4.66-3.33-6.52-5.19-7.32a9.54,9.54,0,0,0-4.29-.67l-1.56,3.07,15.3,13.33C405.83,367.22,404.23,363.9,402.81,361.14Z" style="fill:#fff"></path></g></g><path d="M389.77,355.42s5.59,7.18,9.31,11.44,8.12,7.85,8.78,9.18a8.25,8.25,0,0,1-.26,6.38c-1.07,2.13-2.13,3.46-1.07,3.73s4.52-.67,5.59-2.53,2.39-7.05,1.73-9-4.13-1.73-4.92-2.13-3.73-6.65-6.12-11.31-3.33-6.52-5.19-7.32S391.23,352.23,389.77,355.42Z" style="fill:none;stroke:#263238;stroke-linecap:round;stroke-linejoin:round"></path><path d="M412.12,383.62c1.06-1.86,2.39-7.05,1.73-9s-4.13-1.73-4.92-2.13a.91.91,0,0,1-.13-.1,2.59,2.59,0,0,0-.32,1c0,.76,1,2.38,1.07,3,.06.34-.64.61-1.32.8a8.73,8.73,0,0,1-.63,5.21c-1.07,2.13-2.13,3.46-1.07,3.73S411.05,385.48,412.12,383.62Z" style="fill:#263238;stroke:#263238;stroke-linecap:round;stroke-linejoin:round"></path><path d="M402.81,359s1.46,13.3,1.46,18.36-.53,6.78-.53,6.78-6.52,2.26-8.25,2.93.27,1.73,1.6,2,9.31.14,10.77-.53.8-7.18.93-9.58,2.26-9.57,2.13-15-.8-7.31-.8-7.31Z" style="fill:#fff"></path><g style="clip-path:url(#freepik--clip-path-12--inject-70)"><path d="M408.79,379c.14-2.39,2.26-9.57,2.13-15s-.8-7.31-.8-7.31L402.81,359s.24,2.18.52,5.11l3.82,2.31s-1.06,19-.62,19.72a10.91,10.91,0,0,1,.29,2.65,4.17,4.17,0,0,0,1-.26C409.33,387.88,408.66,381.36,408.79,379Z" style="fill:#567DD3"></path><path d="M408.79,379c.14-2.39,2.26-9.57,2.13-15s-.8-7.31-.8-7.31L402.81,359s.24,2.18.52,5.11l3.82,2.31s-1.06,19-.62,19.72a10.91,10.91,0,0,1,.29,2.65,4.17,4.17,0,0,0,1-.26C409.33,387.88,408.66,381.36,408.79,379Z" style="fill:#fff;opacity:0.7000000000000001"></path></g><path d="M402.81,359s1.46,13.3,1.46,18.36-.53,6.78-.53,6.78-6.52,2.26-8.25,2.93.27,1.73,1.6,2,9.31.14,10.77-.53.8-7.18.93-9.58,2.26-9.57,2.13-15-.8-7.31-.8-7.31Z" style="fill:none;stroke:#263238;stroke-linecap:round;stroke-linejoin:round"></path><path d="M408.8,385.25c-1.36.27-3.53.55-3.77-.11a1.71,1.71,0,0,0-1.29-1s-6.52,2.26-8.25,2.93.27,1.73,1.6,2,9.31.14,10.77-.53C408.49,388.26,408.72,386.9,408.8,385.25Z" style="fill:#263238;stroke:#263238;stroke-linecap:round;stroke-linejoin:round"></path><path d="M390.3,331.88l-5.45,21.94a28.14,28.14,0,0,0,6.92,2.4,31.41,31.41,0,0,0,6.51,0l-.39,4.26a16.81,16.81,0,0,0,6.38,1.33c4,.13,11.31-1.33,11.31-1.33l-1.33-27.67Z" style="fill:#567DD3;stroke:#263238;stroke-linecap:round;stroke-linejoin:round"></path><path d="M398.28,356.22s.14-11.44.14-15.17" style="fill:#fff;stroke:#263238;stroke-linecap:round;stroke-linejoin:round"></path><path d="M398.15,295.56s-3.32,4.52-3.46,7.85-3.46,23.94-4.39,26.47a32.33,32.33,0,0,1-1.73,4s8.25,3.86,12.51,3.46,13.43-3.59,13.43-3.59-.4-8.12-1.06-16.23-4.12-19.42-5.06-21.82S403.61,290.24,398.15,295.56Z" style="fill:#fff;stroke:#263238;stroke-linecap:round;stroke-linejoin:round"></path><polygon points="403.34 288.64 396.02 295.03 396.82 299.15 405.73 292.1 403.34 288.64" style="fill:#fff;stroke:#263238;stroke-linecap:round;stroke-linejoin:round"></polygon><path d="M408,317.44l-6.7,14.05s-3,2.42-4.32,3.63a10,10,0,0,0-3,5.13c-.3,1.82,1.19,1.21,1.79.61s2.38-2.57,2.83-2.57a4.34,4.34,0,0,0,2.83-1.66,15.71,15.71,0,0,0,1.64-3.48,83.1,83.1,0,0,0,7-6.49c3.27-3.48,4-6.5,3.87-8.61a5.78,5.78,0,0,0-.6-2.72Z" style="fill:#fff"></path><g style="clip-path:url(#freepik--clip-path-13--inject-70)"><path d="M410.07,326.66c3.27-3.48,4-6.5,3.87-8.61a5.78,5.78,0,0,0-.6-2.72l-.37.14-5.79,3.65v0a9.45,9.45,0,0,1,2.36,2c.36.73-2.56,6.21-4.93,9.31a48.66,48.66,0,0,1-7.12,7.49,26.85,26.85,0,0,0-3.11,2.92l2-.68c.77-.8,1.85-1.9,2.19-1.9a4.34,4.34,0,0,0,2.83-1.66,15.71,15.71,0,0,0,1.64-3.48A83.1,83.1,0,0,0,410.07,326.66Z" style="fill:#567DD3"></path><path d="M410.07,326.66c3.27-3.48,4-6.5,3.87-8.61a5.78,5.78,0,0,0-.6-2.72l-.37.14-5.79,3.65v0a9.45,9.45,0,0,1,2.36,2c.36.73-2.56,6.21-4.93,9.31a48.66,48.66,0,0,1-7.12,7.49,26.85,26.85,0,0,0-3.11,2.92l2-.68c.77-.8,1.85-1.9,2.19-1.9a4.34,4.34,0,0,0,2.83-1.66,15.71,15.71,0,0,0,1.64-3.48A83.1,83.1,0,0,0,410.07,326.66Z" style="fill:#fff;opacity:0.7000000000000001"></path></g><path d="M408,317.44l-6.7,14.05s-3,2.42-4.32,3.63a10,10,0,0,0-3,5.13c-.3,1.82,1.19,1.21,1.79.61s2.38-2.57,2.83-2.57a4.34,4.34,0,0,0,2.83-1.66,15.71,15.71,0,0,0,1.64-3.48,83.1,83.1,0,0,0,7-6.49c3.27-3.48,4-6.5,3.87-8.61a5.78,5.78,0,0,0-.6-2.72Z" style="fill:none;stroke:#263238;stroke-linecap:round;stroke-linejoin:round;stroke-width:1.1277400000000002px"></path><path d="M404.67,302.48,406,319.1s.93.53,3.85-.13a44.12,44.12,0,0,0,5.86-1.86s-3.45-14.9-5.31-19.42-3.46-5.05-5.45-4.12" style="fill:#fff;stroke:#263238;stroke-linecap:round;stroke-linejoin:round"></path><polyline points="374.13 298.4 378.79 301.06 382.72 340.57" style="fill:none;stroke:#fff;stroke-linecap:round;stroke-linejoin:round"></polyline><path d="M413.64,293.81s.87,1.69.63,2.46a11,11,0,0,1-3.8,3.46c-.87.24,0-1.06.62-2.16S413.64,293.81,413.64,293.81Z" style="fill:#fff;stroke:#263238;stroke-linecap:round;stroke-linejoin:round"></path><path d="M411.91,292s1.35.86,1.4,1.82-.53,2.07-2.12,3.37-2.74,1.4-3.08,1.06.63-1.39.63-1.39S411.67,294.34,411.91,292Z" style="fill:#fff;stroke:#263238;stroke-linecap:round;stroke-linejoin:round"></path><path d="M410.71,290.64a2.48,2.48,0,0,1,1.2,1.35c.29.91-.05,1.82-1.44,3.41s-3.13,2.41-3.71,2.31.19-1.3.34-1.49S410.71,290.64,410.71,290.64Z" style="fill:#fff;stroke:#263238;stroke-linecap:round;stroke-linejoin:round"></path><path d="M408,289.18s-4,7.58-2.92,7.85,1.73-.4,2.66-1.73,3.06-4,2.66-4.93S408.79,288.51,408,289.18Z" style="fill:#fff;stroke:#263238;stroke-linecap:round;stroke-linejoin:round"></path><path d="M373.41,224.1s.27,4.39.27,9.18,1.19,5.58,2.52,4.39,6-5.32,6.65-8-.53-16.36-.53-16.36S374.34,223.3,373.41,224.1Z" style="fill:#fff"></path><g style="clip-path:url(#freepik--clip-path-14--inject-70)"><path d="M375.18,222.09l.51,2.15,6.41,7.08a5.82,5.82,0,0,0,.75-1.63c.67-2.66-.53-16.36-.53-16.36S377.82,219,375.18,222.09Z" style="fill:#567DD3"></path><path d="M375.18,222.09l.51,2.15,6.41,7.08a5.82,5.82,0,0,0,.75-1.63c.67-2.66-.53-16.36-.53-16.36S377.82,219,375.18,222.09Z" style="fill:#fff;opacity:0.7000000000000001"></path></g><path d="M373.41,224.1s.27,4.39.27,9.18,1.19,5.58,2.52,4.39,6-5.32,6.65-8-.53-16.36-.53-16.36S374.34,223.3,373.41,224.1Z" style="fill:none;stroke:#263238;stroke-linecap:round;stroke-linejoin:round"></path><path d="M362.9,204.68a104.4,104.4,0,0,0,4.26,14.9c2.39,5.85,3.59,7.85,6.25,6.65s8-6.92,8.91-12.24-.4-9.31-2.39-13.17S364.1,203.08,362.9,204.68Z" style="fill:#fff"></path><g style="clip-path:url(#freepik--clip-path-15--inject-70)"><path d="M375.69,223.18a42.77,42.77,0,0,1-3.26,3.35,3.75,3.75,0,0,0,1-.3c2.66-1.2,8-6.92,8.91-12.24s-.4-9.31-2.39-13.17c-.74-1.42-3.09-1.48-5.83-.92-.52,3.23-.7,7.08.79,9.25" style="fill:#567DD3"></path><path d="M375.69,223.18a42.77,42.77,0,0,1-3.26,3.35,3.75,3.75,0,0,0,1-.3c2.66-1.2,8-6.92,8.91-12.24s-.4-9.31-2.39-13.17c-.74-1.42-3.09-1.48-5.83-.92-.52,3.23-.7,7.08.79,9.25" style="fill:#fff;opacity:0.7000000000000001"></path></g><path d="M362.9,204.68a104.4,104.4,0,0,0,4.26,14.9c2.39,5.85,3.59,7.85,6.25,6.65s8-6.92,8.91-12.24-.4-9.31-2.39-13.17S364.1,203.08,362.9,204.68Z" style="fill:none;stroke:#263238;stroke-linecap:round;stroke-linejoin:round"></path><path d="M368.41,212.23l-1.53,5.3,1.72.42.64,2.27s1.19.68,3.47-.75a3.6,3.6,0,0,0,1.77-3.7" style="fill:none;stroke:#263238;stroke-linecap:round;stroke-linejoin:round"></path><path d="M369.69,208.4a2.4,2.4,0,0,1,3.45.27" style="fill:none;stroke:#263238;stroke-linecap:round;stroke-linejoin:round"></path><path d="M367.29,209.33a1.75,1.75,0,0,0-2.39.8" style="fill:none;stroke:#263238;stroke-linecap:round;stroke-linejoin:round"></path><path d="M372.07,211.45c.08.55-.09,1-.38,1.07s-.59-.37-.67-.92.1-1,.39-1.06S372,210.91,372.07,211.45Z" style="fill:#222221"></path><path d="M367.68,212.05c.08.55-.09,1-.38,1.07s-.59-.37-.67-.92.1-1,.39-1.06S367.61,211.51,367.68,212.05Z" style="fill:#222221"></path><path d="M374.74,202.68c.16-.36-6.25,4.13-11.71,4.26s-8-2.13-5.85-7.05,11.18-8.91,20.35-8.51,8.52,7.45,8,11.57-1.72,7.18-3.59,7.58-4,.27-4.25-.66,0-2.93-1.47-2.93S373.68,205.08,374.74,202.68Z" style="fill:#263238;stroke:#263238;stroke-linecap:round;stroke-linejoin:round"></path><path d="M383.29,198a1.94,1.94,0,0,0,.57-1.2" style="fill:none;stroke:#fff;stroke-linecap:round;stroke-linejoin:round;stroke-width:0.5px"></path><path d="M361.36,204.75s.78,1.74,7.57,0c4.77-1.23,10.22-3.51,13-5.57" style="fill:none;stroke:#fff;stroke-linecap:round;stroke-linejoin:round;stroke-width:0.5px"></path><path d="M375.13,204.94s6.79,1.17,9.5-4.07" style="fill:none;stroke:#fff;stroke-linecap:round;stroke-linejoin:round;stroke-width:0.5px"></path><path d="M376.49,206.3a10,10,0,0,0,6.79,0" style="fill:none;stroke:#fff;stroke-linecap:round;stroke-linejoin:round;stroke-width:0.5px"></path><path d="M380.19,212.26s1.2-5.32,2.53-4.52a3.27,3.27,0,0,1,1.07,4.92c-1.6,2.13-3.06,2-3.06,2" style="fill:#fff"></path><g style="clip-path:url(#freepik--clip-path-16--inject-70)"><path d="M380.19,212.26s1.2-5.32,2.53-4.52a3.27,3.27,0,0,1,1.07,4.92c-1.6,2.13-3.06,2-3.06,2" style="fill:#567DD3"></path><path d="M380.19,212.26s1.2-5.32,2.53-4.52a3.27,3.27,0,0,1,1.07,4.92c-1.6,2.13-3.06,2-3.06,2" style="fill:#fff;opacity:0.7000000000000001"></path></g><path d="M380.19,212.26s1.2-5.32,2.53-4.52a3.27,3.27,0,0,1,1.07,4.92c-1.6,2.13-3.06,2-3.06,2" style="fill:none;stroke:#263238;stroke-linecap:round;stroke-linejoin:round"></path></g></svg>